<?xml version="1.0" encoding="UTF-8" standalone="no"?>
<!-- Created with Inkscape (http://www.inkscape.org/) -->

<svg
   xmlns:dc="http://purl.org/dc/elements/1.1/"
   xmlns:cc="http://creativecommons.org/ns#"
   xmlns:rdf="http://www.w3.org/1999/02/22-rdf-syntax-ns#"
   xmlns:svg="http://www.w3.org/2000/svg"
   xmlns="http://www.w3.org/2000/svg"
   xmlns:sodipodi="http://sodipodi.sourceforge.net/DTD/sodipodi-0.dtd"
   xmlns:inkscape="http://www.inkscape.org/namespaces/inkscape"
   width="210mm"
   height="297mm"
   viewBox="0 0 210 297"
   version="1.1"
   id="svg8"
   inkscape:version="0.92.2 (5c3e80d, 2017-08-06)"
   sodipodi:docname="Mentor Logo.svg">
  <defs
     id="defs2">
    <clipPath
       id="clipPath48"
       clipPathUnits="userSpaceOnUse">
      <path
         inkscape:connector-curvature="0"
         id="path46"
         d="M 0,470.198 H 2276.127 V 0 H 0 Z" />
    </clipPath>
    <clipPath
       id="clipPath86"
       clipPathUnits="userSpaceOnUse">
      <path
         inkscape:connector-curvature="0"
         id="path84"
         d="M 0,470.198 H 2276.127 V 0 H 0 Z" />
    </clipPath>
    <clipPath
       id="clipPath146"
       clipPathUnits="userSpaceOnUse">
      <path
         inkscape:connector-curvature="0"
         id="path144"
         d="M 0,470.198 H 2276.127 V 0 H 0 Z" />
    </clipPath>
  </defs>
  <sodipodi:namedview
     id="base"
     pagecolor="#ffffff"
     bordercolor="#666666"
     borderopacity="1.0"
     inkscape:pageopacity="0.0"
     inkscape:pageshadow="2"
     inkscape:zoom="1.46"
     inkscape:cx="398.30358"
     inkscape:cy="580.16952"
     inkscape:document-units="mm"
     inkscape:current-layer="g40"
     showgrid="false"
     inkscape:window-width="1600"
     inkscape:window-height="837"
     inkscape:window-x="-8"
     inkscape:window-y="-8"
     inkscape:window-maximized="1" />
  <metadata
     id="metadata5">
    <rdf:RDF>
      <cc:Work
         rdf:about="">
        <dc:format>image/svg+xml</dc:format>
        <dc:type
           rdf:resource="http://purl.org/dc/dcmitype/StillImage" />
        <dc:title></dc:title>
      </cc:Work>
    </rdf:RDF>
  </metadata>
  <g
     inkscape:label="Layer 1"
     inkscape:groupmode="layer"
     id="layer1">
    <g
       transform="matrix(0.35277777,0,0,-0.35277777,-355.65942,233.72287)"
       inkscape:label="Logo_Flag - Copy"
       id="g40">
      <g
         id="g42">
        <g
           clip-path="url(#clipPath48)"
           id="g44">
          <g
             transform="translate(296.8828,274.6758)"
             id="g50">
            <path
               inkscape:connector-curvature="0"
               id="path52"
               style="fill:#ffff00;fill-opacity:1;fill-rule:nonzero;stroke:none"
               d="M 0,0 C -5.227,-5.884 -14.115,-15.517 -25.842,-26.843 -36.561,-37.195 -46.82,-42.354 -53.893,-44.908 l 16.551,-3.435 c 0,0 -6.666,-4.667 -18.666,-9.667 -2.226,-0.928 -4.5,-1.738 -6.793,-2.486 -4.14,-1.352 -8.351,-2.497 -12.584,-3.526 -3.33,-0.811 -10.832,-1.279 -22.624,-18.321 -11.379,-16.446 -30.667,-7.667 -30.667,-10 0,-2.756 -0.491,-5.69 -1.238,-8.335 -1.401,-4.959 -4.235,-9.257 -7.239,-13.381 -2.734,-3.754 -5.975,-7.607 -10.608,-8.959 -3.902,-1.138 -7.956,-0.231 -11.837,0.523 -3.994,0.775 -7.966,1.735 -11.775,3.183 -2.355,0.896 -4.797,1.962 -7.179,3.158 12.673,-37.561 50.952,-64.856 96.21,-64.856 55.598,0 100.666,41.19 100.666,92 l 0.022,88.99 z" />
          </g>
          <g
             transform="translate(208.2075,234.666)"
             id="g54">
            <path
               inkscape:connector-curvature="0"
               id="path56"
               style="fill:#ff0000;fill-opacity:1;fill-rule:nonzero;stroke:none"
               d="m 0,0 c 12.667,-5.666 33.667,-4.666 33.667,-4.666 l 1.116,-0.232 c 7.072,2.553 17.332,7.712 28.05,18.065 11.727,11.326 20.616,20.958 25.842,26.843 l -58.14,0.324 h -59.68 c 0.139,-0.873 0.295,-1.86 0.478,-3 C -26,20.667 -12.667,5.667 0,0" />
          </g>
          <g
             transform="translate(193.7979,228.5791)"
             id="g58">
            <path
               inkscape:connector-curvature="0"
               id="path60"
               style="fill:#ff0000;fill-opacity:1;fill-rule:nonzero;stroke:none"
               d="m 0,0 c 7.276,-10.714 5.126,-24.866 -4.801,-31.608 -9.928,-6.744 -23.875,-3.522 -31.152,7.193 l -33.745,49.689 c -7.277,10.715 -5.127,24.867 4.801,31.609 9.928,6.742 23.875,3.522 31.152,-7.193 z" />
          </g>
          <g
             transform="translate(279.1348,434.5073)"
             id="g62">
            <path
               inkscape:connector-curvature="0"
               id="path64"
               style="fill:#000000;fill-opacity:1;fill-rule:nonzero;stroke:none"
               d="M 0,0 C -13.156,3.527 -26.143,-4.182 -29.002,-17.22 L -55.188,-145.757 H -4.941 L 18.643,-29.993 C 21.504,-16.956 13.156,-3.527 0,0" />
          </g>
          <g
             transform="translate(186.082,438.9443)"
             id="g66">
            <path
               inkscape:connector-curvature="0"
               id="path68"
               style="fill:#000000;fill-opacity:1;fill-rule:nonzero;stroke:none"
               d="M 0,0 C -3.482,13.077 -16.791,20.885 -29.723,17.44 -42.654,13.996 -50.314,0.603 -46.831,-12.474 l 34.532,-137.72 H 37.66 Z" />
          </g>
          <g
             transform="translate(153.8711,194.1387)"
             id="g70">
            <path
               inkscape:connector-curvature="0"
               id="path72"
               style="fill:#ff0000;fill-opacity:1;fill-rule:nonzero;stroke:none"
               d="m 0,0 c 6.823,-10.046 4.305,-23.656 -5.623,-30.398 -9.928,-6.744 -23.507,-4.064 -30.33,5.983 l -31.64,46.59 c -6.823,10.047 -4.305,23.657 5.623,30.398 9.928,6.742 23.507,4.064 30.33,-5.983 z" />
          </g>
        </g>
      </g>
      <text
         id="text78"
         style="font-variant:normal;font-weight:normal;font-stretch:normal;font-size:55px;font-family:Broadway;-inkscape-font-specification:Broadway;writing-mode:lr-tb;fill:#000000;fill-opacity:1;fill-rule:nonzero;stroke:none"
         transform="matrix(1,0,0,-1,80.7388,48.3154)">
        <tspan
           id="tspan74"
           sodipodi:role="line"
           y="0"
           x="0 59.455002 106.645">Dri</tspan>
        <tspan
           id="tspan76"
           sodipodi:role="line"
           y="-0.33000001"
           x="196.02 247.11501">er</tspan>
      </text>
      <g
         id="g80"
         transform="matrix(0.3665227,0,0,0.3665227,1118.6172,154.21174)"
         style="fill:#000000">
        <g
           clip-path="url(#clipPath86)"
           id="g82"
           style="fill:#000000">
          <g
             transform="translate(596.44545,263.76958)"
             id="g96"
             style="fill:#000000;fill-opacity:1">
            <path
               inkscape:connector-curvature="0"
               id="path98"
               style="fill:#000000;fill-opacity:1;fill-rule:nonzero;stroke:none"
               d="M 0,0 C -5.227,-5.884 -14.115,-15.517 -25.842,-26.843 -36.561,-37.195 -46.82,-42.354 -53.893,-44.908 l 16.551,-3.435 c 0,0 -6.666,-4.667 -18.666,-9.667 -2.226,-0.928 -4.5,-1.738 -6.793,-2.486 -4.14,-1.352 -8.351,-2.497 -12.584,-3.526 -3.33,-0.811 -10.832,-1.279 -22.624,-18.321 -11.38,-16.446 -30.667,-7.667 -30.667,-10 0,-2.756 -0.49,-5.69 -1.238,-8.335 -1.401,-4.959 -4.234,-9.257 -7.238,-13.381 -2.735,-3.754 -5.977,-7.607 -10.61,-8.959 -3.901,-1.138 -7.955,-0.231 -11.836,0.523 -3.994,0.775 -7.966,1.735 -11.775,3.183 -2.356,0.896 -4.797,1.962 -7.18,3.158 12.674,-37.561 50.953,-64.856 96.211,-64.856 55.598,0 100.666,41.19 100.666,92 l 0.022,88.99 z" />
          </g>
          <g
             transform="translate(507.76965,223.75978)"
             id="g100"
             style="fill:#000000;fill-opacity:1">
            <path
               inkscape:connector-curvature="0"
               id="path102"
               style="fill:#000000;fill-opacity:1;fill-rule:nonzero;stroke:none"
               d="m 0,0 c 12.668,-5.666 33.668,-4.666 33.668,-4.666 l 1.115,-0.232 c 7.072,2.553 17.332,7.712 28.051,18.065 11.727,11.326 20.615,20.958 25.842,26.843 l -58.141,0.324 h -59.68 c 0.139,-0.873 0.295,-1.86 0.479,-3 C -26,20.667 -12.666,5.667 0,0" />
          </g>
          <g
             transform="translate(493.36055,217.67288)"
             id="g104"
             style="fill:#000000">
            <path
               inkscape:connector-curvature="0"
               id="path106"
               style="fill:#000000;fill-opacity:1;fill-rule:nonzero;stroke:none"
               d="m 0,0 c 7.276,-10.714 5.126,-24.866 -4.801,-31.608 -9.928,-6.744 -23.876,-3.522 -31.151,7.193 l -33.746,49.689 c -7.277,10.715 -5.127,24.867 4.801,31.609 9.927,6.742 23.875,3.522 31.152,-7.193 z" />
          </g>
          <g
             transform="translate(578.69745,423.60108)"
             id="g108"
             style="fill:#000000">
            <path
               inkscape:connector-curvature="0"
               id="path110"
               style="fill:#000000;fill-opacity:1;fill-rule:nonzero;stroke:none"
               d="M 0,0 C -13.156,3.527 -26.143,-4.182 -29.002,-17.22 L -55.188,-145.757 H -4.941 L 18.643,-29.993 C 21.504,-16.956 13.156,-3.527 0,0" />
          </g>
          <g
             transform="translate(485.64465,428.03808)"
             id="g112"
             style="fill:#000000">
            <path
               inkscape:connector-curvature="0"
               id="path114"
               style="fill:#000000;fill-opacity:1;fill-rule:nonzero;stroke:none"
               d="M 0,0 C -3.482,13.077 -16.791,20.885 -29.723,17.44 -42.654,13.996 -50.314,0.603 -46.831,-12.474 l 34.532,-137.72 H 37.66 Z" />
          </g>
          <g
             transform="translate(453.43375,183.23248)"
             id="g116"
             style="fill:#000000">
            <path
               inkscape:connector-curvature="0"
               id="path118"
               style="fill:#000000;fill-opacity:1;fill-rule:nonzero;stroke:none"
               d="m 0,0 c 6.822,-10.046 4.305,-23.656 -5.623,-30.398 -9.928,-6.744 -23.507,-4.064 -30.33,5.983 l -31.64,46.59 c -6.823,10.047 -4.305,23.657 5.622,30.398 9.928,6.742 23.508,4.064 30.33,-5.983 z" />
          </g>
        </g>
      </g>
      <text
         id="text122"
         style="font-variant:normal;font-weight:bold;font-stretch:normal;font-size:55px;font-family:'Calvert MT Std';-inkscape-font-specification:CalvertMTStd-Bold;writing-mode:lr-tb;fill:#000000;fill-opacity:1;fill-rule:nonzero;stroke:none"
         transform="scale(1,-1)"
         x="1240.2148"
         y="-161.54207">
        <tspan
           id="tspan120"
           sodipodi:role="line"
           x="1240.2148"
           y="-161.54207"
           style="font-style:normal;font-variant:normal;font-weight:bold;font-stretch:normal;font-size:28px;font-family:Audiowide;-inkscape-font-specification:'Audiowide Bold';fill:#88aa00">MENTOR</tspan>
      </text>
    </g>
  </g>
</svg>
